<svg width="150" height="150" viewBox="0 0 150 150" fill="none" xmlns="http://www.w3.org/2000/svg">
<path d="M131.25 0H18.75C13.7772 0 9.00806 1.97544 5.49175 5.49175C1.97544 9.00806 0 13.7772 0 18.75V131.25C0 136.223 1.97544 140.992 5.49175 144.508C9.00806 148.025 13.7772 150 18.75 150H131.25C136.223 150 140.992 148.025 144.508 144.508C148.025 140.992 150 136.223 150 131.25V18.75C150 13.7772 148.025 9.00806 144.508 5.49175C140.992 1.97544 136.223 0 131.25 0ZM12.5 18.75C12.5 15.3031 15.3031 12.5 18.75 12.5H131.25C134.697 12.5 137.5 15.3031 137.5 18.75V37.5H12.5V18.75ZM137.5 131.25C137.5 134.697 134.697 137.5 131.25 137.5H18.75C15.3031 137.5 12.5 134.697 12.5 131.25V50H137.5V131.25Z" fill="#3EA2FF"/>
<path d="M25 25C25 26.6576 25.6585 28.2473 26.8306 29.4194C28.0027 30.5915 29.5924 31.25 31.25 31.25C32.9076 31.25 34.4973 30.5915 35.6694 29.4194C36.8415 28.2473 37.5 26.6576 37.5 25C37.5 23.3424 36.8415 21.7527 35.6694 20.5806C34.4973 19.4085 32.9076 18.75 31.25 18.75C29.5924 18.75 28.0027 19.4085 26.8306 20.5806C25.6585 21.7527 25 23.3424 25 25Z" fill="#3EA2FF"/>
<path d="M50 25C50 26.6576 50.6585 28.2473 51.8306 29.4194C53.0027 30.5915 54.5924 31.25 56.25 31.25C57.9076 31.25 59.4973 30.5915 60.6694 29.4194C61.8415 28.2473 62.5 26.6576 62.5 25C62.5 23.3424 61.8415 21.7527 60.6694 20.5806C59.4973 19.4085 57.9076 18.75 56.25 18.75C54.5924 18.75 53.0027 19.4085 51.8306 20.5806C50.6585 21.7527 50 23.3424 50 25Z" fill="#3EA2FF"/>
<path d="M118.75 18.75H81.25C79.5924 18.75 78.0027 19.4085 76.8306 20.5806C75.6585 21.7527 75 23.3424 75 25C75 26.6576 75.6585 28.2473 76.8306 29.4194C78.0027 30.5915 79.5924 31.25 81.25 31.25H118.75C120.408 31.25 121.997 30.5915 123.169 29.4194C124.342 28.2473 125 26.6576 125 25C125 23.3424 124.342 21.7527 123.169 20.5806C121.997 19.4085 120.408 18.75 118.75 18.75Z" fill="#3EA2FF"/>
<path d="M78.3054 96.9506C80.046 94.5204 80.7918 91.5168 80.39 88.5547C80.4093 85.5314 79.5535 82.5671 77.9258 80.0194C76.298 77.4717 73.968 75.4494 71.2166 74.1965C68.4653 72.9436 65.4102 72.5136 62.4199 72.9584C59.4297 73.4032 56.632 74.7038 54.3644 76.7033L54.3244 76.6633L53.9246 77.0631C53.7819 77.1945 53.6105 77.2973 53.462 77.4172L53.5134 77.48L42.6737 88.2691L50.0982 95.6941L61.1606 84.7051C61.9028 84.0097 62.8332 83.5483 63.8359 83.3782C64.8386 83.2081 65.8691 83.3369 66.799 83.7486C67.729 84.1603 68.5172 84.8367 69.0653 85.6934C69.6135 86.5501 69.8973 87.5491 69.8815 88.5661C69.8578 89.6365 69.5004 90.6729 68.8592 91.5304L58.248 102.205L58.2936 102.251C57.4122 103.19 56.9114 104.424 56.8887 105.712C56.888 106.402 57.0232 107.085 57.2866 107.722C57.55 108.36 57.9365 108.939 58.4239 109.427C58.9114 109.915 59.4902 110.302 60.1274 110.567C60.7645 110.831 61.4475 110.967 62.1372 110.967C63.4323 110.964 64.6785 110.472 65.6267 109.59L65.6667 109.636L78.3054 96.9506ZM114 80.273C114 73.3109 111.237 66.6334 106.317 61.7073C101.398 56.7811 94.7247 54.0091 87.7631 54C81.5347 54.0111 75.5196 56.2705 70.8239 60.3626L70.8638 60.414C70.1135 61.1379 69.5962 62.0692 69.3783 63.0888C69.1603 64.1084 69.2516 65.1699 69.6405 66.1373C70.0294 67.1047 70.6982 67.934 71.5612 68.519C72.4242 69.104 73.4421 69.4181 74.4847 69.4211C75.7077 69.4031 76.8843 68.9494 77.8029 68.1417H77.8314C80.61 65.7849 84.1311 64.4844 87.7745 64.4692C91.0176 64.4401 94.1902 65.4161 96.8562 67.2632C99.5222 69.1104 101.551 71.7378 102.663 74.7846C103.775 77.8314 103.917 81.1479 103.068 84.2784C102.219 87.4088 100.422 90.1996 97.9232 92.2671L72.2231 117.86C70.8249 119.527 69.0954 120.884 67.1444 121.847C65.1934 122.809 63.0635 123.354 60.8903 123.449C58.7171 123.543 56.5479 123.185 54.5207 122.396C52.4935 121.607 50.6527 120.405 49.1151 118.866C47.5775 117.327 46.3769 115.485 45.5895 113.457C44.8021 111.429 44.4452 109.259 44.5414 107.086C44.6376 104.913 45.1848 102.783 46.1484 100.833C47.1119 98.8824 48.4706 97.1538 50.1382 95.7569L42.7137 88.3319C40.0673 90.7013 37.931 93.5846 36.4348 96.8063C34.9387 100.028 34.114 103.521 34.011 107.071C33.908 110.622 34.5289 114.156 35.8359 117.459C37.1429 120.762 39.1085 123.765 41.6131 126.283C44.1178 128.802 47.1089 130.785 50.4043 132.11C53.6997 133.435 57.2305 134.076 60.7814 133.993C64.3324 133.91 67.8293 133.104 71.059 131.626C74.2887 130.148 77.1837 128.027 79.5676 125.394L105.433 99.6007C108.127 97.1524 110.28 94.1688 111.756 90.8407C113.231 87.5126 113.995 83.9133 114 80.273V80.273Z" fill="#3EA2FF"/>
</svg>
