<svg width="184" height="184" viewBox="0 0 184 184" fill="none" xmlns="http://www.w3.org/2000/svg">
<path d="M0 55.5556H183.333V166.667C183.333 175.833 175.833 183.333 166.667 183.333H16.6667C7.5 183.333 0 175.833 0 166.667V55.5556V55.5556ZM16.6667 0H166.667C175.833 0 183.333 7.5 183.333 16.6667V55.5556H0V16.6667C0 7.5 7.5 0 16.6667 0V0Z" fill="#9D9D9D"/>
<path d="M30.5554 13.8887C38.3332 13.8887 44.4443 19.9998 44.4443 27.7776C44.4443 35.5553 38.3332 41.6665 30.5554 41.6665C22.7776 41.6665 16.6665 35.5553 16.6665 27.7776C16.6665 19.9998 22.7776 13.8887 30.5554 13.8887V13.8887Z" fill="white"/>
<path opacity="0.6" d="M65.5554 13.6665C73.3332 13.6665 79.4443 19.7776 79.4443 27.5554C79.4443 35.3332 73.3332 41.4443 65.5554 41.4443C57.7776 41.4443 51.6665 35.3332 51.6665 27.5554C51.6665 19.7776 57.7776 13.6665 65.5554 13.6665V13.6665Z" fill="#CECECE"/>
<path opacity="0.6" d="M13.6665 49.6665H169.667V160.886C169.667 165.862 166.045 169.666 161.309 169.666H22.0236C17.2879 169.666 13.6665 165.862 13.6665 160.886V49.6665V49.6665Z" fill="#EAEAEA"/>
<path d="M95.7516 112.951C97.4704 110.52 98.2069 107.517 97.8101 104.555C97.8292 101.531 96.9841 98.5671 95.3767 96.0194C93.7693 93.4717 91.4684 91.4494 88.7514 90.1965C86.0345 88.9436 83.0176 88.5136 80.0647 88.9584C77.1118 89.4032 74.3491 90.7038 72.1098 92.7033L72.0704 92.6633L71.6756 93.0631C71.5346 93.1945 71.3654 93.2973 71.2188 93.4172L71.2695 93.48L60.5653 104.269L67.897 111.694L78.8211 100.705C79.554 100.01 80.4728 99.5483 81.4629 99.3782C82.4531 99.2081 83.4707 99.3369 84.3891 99.7486C85.3074 100.16 86.0857 100.837 86.627 101.693C87.1683 102.55 87.4486 103.549 87.433 104.566C87.4096 105.637 87.0566 106.673 86.4235 107.53L75.9449 118.205L75.99 118.251C75.1195 119.19 74.625 120.424 74.6026 121.712C74.6019 122.402 74.7354 123.085 74.9955 123.722C75.2556 124.36 75.6373 124.939 76.1187 125.427C76.6 125.915 77.1716 126.302 77.8008 126.567C78.43 126.831 79.1044 126.967 79.7855 126.967C81.0644 126.964 82.295 126.472 83.2314 125.59L83.2709 125.636L95.7516 112.951ZM131 96.273C131 89.3109 128.271 82.6334 123.414 77.7073C118.556 72.7811 111.966 70.0091 105.091 70C98.9405 70.0111 93.0006 72.2705 88.3636 76.3626L88.403 76.414C87.662 77.1379 87.1512 78.0692 86.936 79.0888C86.7208 80.1084 86.811 81.1699 87.195 82.1373C87.5791 83.1047 88.2395 83.934 89.0917 84.519C89.9439 85.104 90.9491 85.4181 91.9786 85.4211C93.1864 85.4031 94.3482 84.9494 95.2553 84.1417H95.2835C98.0274 81.7849 101.504 80.4844 105.102 80.4692C108.305 80.4401 111.438 81.4161 114.071 83.2632C116.703 85.1104 118.706 87.7378 119.805 90.7846C120.903 93.8314 121.043 97.1479 120.205 100.278C119.367 103.409 117.592 106.2 115.124 108.267L89.7453 133.86C88.3646 135.527 86.6567 136.884 84.7301 137.847C82.8034 138.809 80.7003 139.354 78.5542 139.449C76.4081 139.543 74.2661 139.185 72.2642 138.396C70.2624 137.607 68.4445 136.405 66.9262 134.866C65.4078 133.327 64.2222 131.485 63.4446 129.457C62.6671 127.429 62.3146 125.259 62.4096 123.086C62.5046 120.913 63.045 118.783 63.9965 116.833C64.948 114.882 66.2897 113.154 67.9364 111.757L60.6048 104.332C57.9915 106.701 55.8819 109.585 54.4044 112.806C52.9269 116.028 52.1125 119.521 52.0109 123.071C51.9092 126.622 52.5223 130.156 53.813 133.459C55.1036 136.762 57.0447 139.765 59.518 142.283C61.9913 144.802 64.945 146.785 68.1993 148.11C71.4535 149.435 74.9401 150.076 78.4467 149.993C81.9533 149.91 85.4064 149.104 88.5958 147.626C91.7851 146.148 94.6439 144.027 96.998 141.394L122.54 115.601C125.201 113.152 127.327 110.169 128.784 106.841C130.24 103.513 130.995 99.9133 131 96.273V96.273Z" fill="white"/>
<path d="M159.292 16.6665H97.0415C94.2899 16.6665 91.651 17.8781 89.7053 20.0348C87.7596 22.1914 86.6665 25.1165 86.6665 28.1665C86.6665 31.2165 87.7596 34.1416 89.7053 36.2982C91.651 38.4549 94.2899 39.6665 97.0415 39.6665H159.292C162.043 39.6665 164.682 38.4549 166.628 36.2982C168.573 34.1416 169.667 31.2165 169.667 28.1665C169.667 25.1165 168.573 22.1914 166.628 20.0348C164.682 17.8781 162.043 16.6665 159.292 16.6665Z" fill="white"/>
</svg>
